<svg xmlns="http://www.w3.org/2000/svg" xmlns:xlink="http://www.w3.org/1999/xlink" id="Layer_1" x="0" y="0" version="1.1" viewBox="0 0 592 329" xml:space="preserve" style="enable-background:new 0 0 592 329"><style type="text/css">.st0{fill:none;stroke:#999;stroke-width:8;stroke-miterlimit:10}.st1{fill:#999}.st2{fill:#4285f4}.st3{fill:#db4437}.st4{fill:#f4b402}</style><line x1="41.5" x2="153.5" y1="163.5" y2="163.5" class="st0"/><line x1="448" x2="560" y1="164" y2="164" class="st0"/><line x1="225" x2="438" y1="287" y2="164" class="st0"/><line x1="367" x2="153" y1="292" y2="163" class="st0"/><line x1="367" x2="153" y1="38" y2="163" class="st0"/><line x1="225" x2="441" y1="41" y2="164" class="st0"/><line x1="225" x2="153" y1="41" y2="163" class="st0"/><line x1="367" x2="441" y1="38" y2="164" class="st0"/><line x1="367" x2="441" y1="292" y2="164" class="st0"/><line x1="225" x2="153" y1="287" y2="164" class="st0"/><circle cx="41" cy="164" r="41.5" class="st1"/><circle cx="153" cy="164" r="41.5" class="st2"/><circle cx="438" cy="164" r="41.5" class="st2"/><circle cx="550" cy="164" r="41.5" class="st1"/><circle cx="225" cy="287" r="41.5" class="st3"/><circle cx="367" cy="287" r="41.5" class="st4"/><circle cx="225" cy="41" r="41.5" class="st4"/><circle cx="367" cy="41" r="41.5" class="st3"/></svg>